<svg xmlns="http://www.w3.org/2000/svg" width="20" height="20" viewBox="0 0 20 20">
  <path id="Combined_Shape" data-name="Combined Shape" d="M5.519,20A5.525,5.525,0,0,1,0,14.481V5.52A5.525,5.525,0,0,1,5.519,0h8.962A5.525,5.525,0,0,1,20,5.52v8.961A5.525,5.525,0,0,1,14.481,20ZM1.775,5.52v8.961a3.749,3.749,0,0,0,3.744,3.745h8.962a3.75,3.75,0,0,0,3.745-3.745V5.52a3.75,3.75,0,0,0-3.745-3.745H5.519A3.749,3.749,0,0,0,1.775,5.52ZM5,10a5,5,0,1,1,5,5A5.006,5.006,0,0,1,5,10Zm1.722,0A3.278,3.278,0,1,0,10,6.722,3.282,3.282,0,0,0,6.722,10Zm7.812-4.533a1.25,1.25,0,1,1,.883.365A1.259,1.259,0,0,1,14.534,5.468Z" fill="#fff"/>
</svg>
