<svg id="Group_31" data-name="Group 31" xmlns="http://www.w3.org/2000/svg" xmlns:xlink="http://www.w3.org/1999/xlink" width="46.47" height="34.343" viewBox="0 0 46.47 34.343">
  <defs>
    <clipPath id="clip-path">
      <rect id="Rectangle_16" data-name="Rectangle 16" width="46.47" height="34.343" fill="none"/>
    </clipPath>
  </defs>
  <g id="Group_31-2" data-name="Group 31" clip-path="url(#clip-path)">
    <path id="Path_33" data-name="Path 33" d="M33.5,27.189a4.384,4.384,0,1,1,3.1-1.284,4.351,4.351,0,0,1-3.1,1.284m0-7.268a2.885,2.885,0,0,0-2.041,4.925,2.954,2.954,0,0,0,4.081,0,2.884,2.884,0,0,0-2.04-4.925M.748,20.668a.749.749,0,0,1-.726-.93,26.88,26.88,0,0,1,14-17.6l.032-.015.007,0a27.423,27.423,0,0,1,22.47.589.749.749,0,0,1-.121,1.393c-2.565.739-6.08,1.751-8.289,4.675a.762.762,0,0,1-.607.3,21.252,21.252,0,0,0-9.266,2.17,21.131,21.131,0,0,0-7.556,5.674.755.755,0,0,1-.618.274C6.4,17,3.381,19.05,1.167,20.541a.75.75,0,0,1-.418.128M12.046,4.99A25.591,25.591,0,0,0,2.034,18.184a14.481,14.481,0,0,1,7.314-2.5,21.093,21.093,0,0,1,2.7-10.7m2.67-1.4A19.756,19.756,0,0,0,10.867,14.5,23.6,23.6,0,0,1,17.616,9.89a23.865,23.865,0,0,1,7.937-2.233A19.76,19.76,0,0,0,14.716,3.588M17.6,2.462a21.092,21.092,0,0,1,9.837,4.792,14.48,14.48,0,0,1,6.608-4A26.071,26.071,0,0,0,17.6,2.462" transform="translate(0 0)" fill="#c0afde"/>
    <path id="Path_34" data-name="Path 34" d="M69.272,32.376,59.245,12.966l1.331-.687L70.6,31.689ZM55.545,5.033l-.8-1.722L56.1,2.678,56.9,4.4Z" transform="translate(-41.977 -2.054)" fill="#de1b48"/>
    <path id="Path_35" data-name="Path 35" d="M64.888,131.9c-10.6-4.135-27.663-4.264-39.692-.3l-.468-1.422c12.32-4.06,29.819-3.918,40.7.328Z" transform="translate(-18.962 -97.554)" fill="#cfb099"/>
  </g>
</svg>
