<svg xmlns="http://www.w3.org/2000/svg" width="49" height="49" viewBox="0 0 49 49">
  <g id="Group_17" data-name="Group 17" transform="translate(-625)">
    <circle id="Ellipse_3" data-name="Ellipse 3" cx="24.5" cy="24.5" r="24.5" transform="translate(625)" fill="#de1b48"/>
    <g id="notification-new" transform="translate(636.522 10.968)">
      <path id="Path_32" data-name="Path 32" d="M39.849,20.806V18.35h-1.9V21.2a.95.95,0,0,0,.278.671L40.8,24.443v1.507H19.9V24.443l2.572-2.572a.95.95,0,0,0,.278-.672V17.4a7.586,7.586,0,0,1,11.4-6.572V8.7a9.4,9.4,0,0,0-2.85-.756V6H29.4V7.947A9.513,9.513,0,0,0,20.85,17.4v3.407l-2.572,2.572A.95.95,0,0,0,18,24.05V26.9a.95.95,0,0,0,.95.95H25.6v.95a4.75,4.75,0,0,0,9.5,0v-.95h6.65a.95.95,0,0,0,.95-.95V24.05a.95.95,0,0,0-.278-.671ZM33.2,28.8a2.85,2.85,0,1,1-5.7,0v-.95h5.7Z" transform="translate(-18 -6)" fill="#fff"/>
      <circle id="Ellipse_4" data-name="Ellipse 4" cx="3.639" cy="3.639" r="3.639" transform="translate(18.193 3.292)" fill="#fff"/>
    </g>
  </g>
</svg>
