<svg id="Group_550" data-name="Group 550" xmlns="http://www.w3.org/2000/svg" xmlns:xlink="http://www.w3.org/1999/xlink" width="152.83" height="65.986" viewBox="0 0 152.83 65.986">
  <defs>
    <clipPath id="clip-path">
      <rect id="Rectangle_46" data-name="Rectangle 46" width="152.83" height="65.986" fill="none"/>
    </clipPath>
  </defs>
  <path id="Path_327" data-name="Path 327" d="M107.287,15.931h-6.265V35.6H95.453V15.931H89.189v-5.36h18.1Z" transform="translate(-41.478 -4.916)" fill="#fff"/>
  <g id="Group_551" data-name="Group 551">
    <g id="Group_550-2" data-name="Group 550" clip-path="url(#clip-path)">
      <path id="Path_328" data-name="Path 328" d="M116.313,33.04a9.224,9.224,0,1,1,9.259,9.188h-.035a9.121,9.121,0,0,1-9.223-9.018c0-.057,0-.113,0-.17m13.226,0a4,4,0,0,0-8-.207q0,.1,0,.207a4,4,0,0,0,8,.207q0-.1,0-.207" transform="translate(-54.091 -11.059)" fill="#fff"/>
      <path id="Path_329" data-name="Path 329" d="M160.537,25.6V31.76c0,1.5,1.288,1.635,3.584,1.5v4.734c-6.822.7-8.805-1.358-8.805-6.23V25.6h-2.784V20.586h2.784V17.28l5.221-1.566v4.872h3.584V25.6Z" transform="translate(-70.935 -7.308)" fill="#fff"/>
      <path id="Path_330" data-name="Path 330" d="M195.746,24.4V41.8h-5.221V40.167a6.536,6.536,0,0,1-5.186,2.123c-4.56,0-8.318-4-8.318-9.188s3.759-9.188,8.318-9.188a6.542,6.542,0,0,1,5.186,2.123V24.4Zm-5.221,8.7a4.143,4.143,0,1,0-8.284,0,4.143,4.143,0,1,0,8.284,0" transform="translate(-82.324 -11.121)" fill="#fff"/>
      <rect id="Rectangle_44" data-name="Rectangle 44" width="5.221" height="25.407" transform="translate(117.567 5.274)" fill="#fff"/>
      <rect id="Rectangle_45" data-name="Rectangle 45" width="5.221" height="25.407" transform="translate(126.933 5.274)" fill="#fff"/>
      <path id="Path_331" data-name="Path 331" d="M269.656,23.583,263.7,40.463c-1.949,5.534-5.048,7.727-9.92,7.483V43.073c2.437,0,3.584-.766,4.351-2.889l-6.926-16.6h5.743l3.863,10.65,3.272-10.65Z" transform="translate(-116.825 -10.967)" fill="#fff"/>
      <path id="Path_332" data-name="Path 332" d="M79.941,89.278l4.839-2.784a3.432,3.432,0,0,0,3.446,2.086c2.436,0,3.167-1.391,3.167-2.889V69.161h5.569v16.53c0,5.361-3.759,8.319-8.773,8.319-3.864,0-6.648-1.636-8.249-4.734" transform="translate(-37.176 -32.163)" fill="#fff"/>
      <path id="Path_333" data-name="Path 333" d="M116.313,90.389a9.224,9.224,0,1,1,9.259,9.188h-.035a9.121,9.121,0,0,1-9.223-9.018c0-.057,0-.113,0-.17m13.226,0a4,4,0,1,0-4,4.107,3.905,3.905,0,0,0,4.006-3.8c0-.1,0-.2,0-.305" transform="translate(-54.091 -37.73)" fill="#fff"/>
      <path id="Path_334" data-name="Path 334" d="M165.121,81.522v5.915c-2.158-.348-5.221.522-5.221,3.968v7.864H154.68V81.87H159.9v3.1a5.226,5.226,0,0,1,5.221-3.446" transform="translate(-71.934 -37.912)" fill="#fff"/>
      <path id="Path_335" data-name="Path 335" d="M195.746,69.16V93.524h-5.221V91.887a6.536,6.536,0,0,1-5.186,2.123c-4.56,0-8.318-4-8.318-9.188s3.759-9.188,8.318-9.188a6.542,6.542,0,0,1,5.186,2.123v-8.6Zm-5.221,15.662a4.143,4.143,0,1,0-4.142,4.246,3.974,3.974,0,0,0,4.142-4.246" transform="translate(-82.324 -32.163)" fill="#fff"/>
      <path id="Path_336" data-name="Path 336" d="M234.244,81.75v17.4h-5.221V97.517a6.536,6.536,0,0,1-5.186,2.123c-4.56,0-8.318-4-8.318-9.188s3.758-9.187,8.318-9.187a6.542,6.542,0,0,1,5.186,2.123V81.75Zm-5.221,8.7a4.143,4.143,0,1,0-4.142,4.246,3.974,3.974,0,0,0,4.142-4.246" transform="translate(-100.228 -37.792)" fill="#fff"/>
      <path id="Path_337" data-name="Path 337" d="M271,88.466V99.151h-5.221V89.234a2.87,2.87,0,0,0-3.028-3.167c-1.915,0-3.237,1.114-3.237,3.584v9.5H254.3v-17.4h5.221v1.636a5.95,5.95,0,0,1,4.975-2.123c3.515,0,6.508,2.506,6.508,7.2" transform="translate(-118.261 -37.791)" fill="#fff"/>
      <path id="Path_338" data-name="Path 338" d="M23.368,13.56a7.848,7.848,0,0,0-5.811-.2v-1.25l-4.574,0v.568c-.005,5.528-.053,10.938-.16,17.026,0,.208,0,.422-.006.642l0,.5c-.008,1.666-.013,2.767-.454,3.075a1.23,1.23,0,0,1-.374.16l-.391.129V38.45l.658-.107a5.834,5.834,0,0,0,2.487-.967c2.461-1.745,2.591-5.206,2.654-6.868.012-.309.009-.556.008-.68V29.77c.07-4.134.115-8.035.139-11.916a4.049,4.049,0,0,1,3.045-.594,2.882,2.882,0,0,1,1.527,2.1c1.217,4.031-2.292,12.233-3.37,14.6l-.634,1.11,4.157,1.7.556-.974c2.631-4.609,5-11.567,3.767-17.279-.374-1.6-.893-3.8-3.22-4.956" transform="translate(-5.392 -5.632)" fill="#fff"/>
      <path id="Path_339" data-name="Path 339" d="M0,65.986H37.253V0H0ZM15.049,50.94c2.4-5.777,8.068-11.921,11.294-14.639l.435-.366-3.187-3.781-.434.366a63.4,63.4,0,0,0-8.864,9.564c-.25-.779-.5-1.494-.766-2.163A39.909,39.909,0,0,0,10.605,34l-.3-.5-1.239.786a12.38,12.38,0,0,1-1.807.951l-1.36.578.321.556a45.811,45.811,0,0,1,2.7,5.359,34.831,34.831,0,0,1,1.858,6.631c-.1.227-.2.454-.3.687A37.574,37.574,0,0,0,7.67,61.433H4.555V4.556H32.7V61.431H12.421A30.008,30.008,0,0,1,15.049,50.94" fill="#fff"/>
      <path id="Path_340" data-name="Path 340" d="M37.737,103.285v.009l.715,3.094,2.859-1.368.01-.005-.59-3.36Z" transform="translate(-17.55 -47.274)" fill="#de1b48"/>
      <path id="Path_341" data-name="Path 341" d="M37.962,89.423l-.007.009h-.012l-3.168.01.7,3.1,0,.011-.006.008,3.411.171-.925-3.289,1.992,2.776,1.994-2.775-.924,3.288,3.411-.171-.006-.008V92.54l.7-3.1-3.168-.01h-.012l-.007-.009-1.983-2.476Z" transform="translate(-16.172 -40.435)" fill="#de1b48"/>
      <path id="Path_342" data-name="Path 342" d="M34.358,97.44h0L32.39,99.929l2.85,1.387.011.005,2.255-2.556Z" transform="translate(-15.063 -45.315)" fill="#de1b48"/>
      <path id="Path_343" data-name="Path 343" d="M49.187,101.324h0l.011-.005,2.85-1.387L50.08,97.442,46.932,98.77Z" transform="translate(-21.826 -45.316)" fill="#de1b48"/>
      <path id="Path_344" data-name="Path 344" d="M44.442,105.013l.01,0,2.86,1.368.715-3.093v-.009l-3-1.632Z" transform="translate(-20.668 -47.273)" fill="#de1b48"/>
    </g>
  </g>
</svg>
